<svg xmlns="http://www.w3.org/2000/svg" viewBox="0 0 1024 1024" width="1024" height="1024">
  <defs>
    <linearGradient id="outerBg" x1="80" y1="80" x2="944" y2="944" gradientUnits="userSpaceOnUse">
      <stop offset="0" stop-color="#3558D8"/>
      <stop offset="0.55" stop-color="#143EA8"/>
      <stop offset="1" stop-color="#32B6F4"/>
    </linearGradient>
    <linearGradient id="panelBg" x1="170" y1="170" x2="854" y2="854" gradientUnits="userSpaceOnUse">
      <stop offset="0" stop-color="#1636AE"/>
      <stop offset="1" stop-color="#062A93"/>
    </linearGradient>
    <linearGradient id="panelStroke" x1="140" y1="130" x2="900" y2="900" gradientUnits="userSpaceOnUse">
      <stop offset="0" stop-color="#62E8FF"/>
      <stop offset="1" stop-color="#4FF1BF"/>
    </linearGradient>
    <linearGradient id="bars" x1="250" y1="350" x2="500" y2="650" gradientUnits="userSpaceOnUse">
      <stop offset="0" stop-color="#FFD64B"/>
      <stop offset="0.45" stop-color="#FF8C42"/>
      <stop offset="1" stop-color="#3EEB9E"/>
    </linearGradient>
    <linearGradient id="textGrad" x1="640" y1="410" x2="850" y2="640" gradientUnits="userSpaceOnUse">
      <stop offset="0" stop-color="#A3FFD8"/>
      <stop offset="1" stop-color="#8FEAFF"/>
    </linearGradient>
    <radialGradient id="glow" cx="0" cy="0" r="1" gradientUnits="userSpaceOnUse" gradientTransform="translate(512 920) rotate(180) scale(560 180)">
      <stop offset="0" stop-color="#A5E0FF" stop-opacity="0.55"/>
      <stop offset="1" stop-color="#A5E0FF" stop-opacity="0"/>
    </radialGradient>
  </defs>

  <rect width="1024" height="1024" rx="220" fill="url(#outerBg)"/>
  <ellipse cx="512" cy="900" rx="520" ry="160" fill="url(#glow)"/>

  <rect x="114" y="118" width="796" height="796" rx="170" fill="url(#panelBg)"/>
  <rect x="114" y="118" width="796" height="796" rx="170" fill="none" stroke="url(#panelStroke)" stroke-width="18"/>

  <g fill="#55D6FF" opacity="0.24">
    <circle cx="290" cy="325" r="6"/><circle cx="320" cy="325" r="6"/><circle cx="350" cy="325" r="6"/><circle cx="380" cy="325" r="6"/><circle cx="410" cy="325" r="6"/><circle cx="440" cy="325" r="6"/><circle cx="470" cy="325" r="6"/><circle cx="500" cy="325" r="6"/><circle cx="530" cy="325" r="6"/><circle cx="560" cy="325" r="6"/><circle cx="590" cy="325" r="6"/><circle cx="620" cy="325" r="6"/>
    <circle cx="290" cy="355" r="6"/><circle cx="320" cy="355" r="6"/><circle cx="350" cy="355" r="6"/><circle cx="380" cy="355" r="6"/><circle cx="410" cy="355" r="6"/><circle cx="440" cy="355" r="6"/><circle cx="470" cy="355" r="6"/><circle cx="500" cy="355" r="6"/><circle cx="530" cy="355" r="6"/><circle cx="560" cy="355" r="6"/><circle cx="590" cy="355" r="6"/><circle cx="620" cy="355" r="6"/>
    <circle cx="290" cy="385" r="6"/><circle cx="320" cy="385" r="6"/><circle cx="350" cy="385" r="6"/><circle cx="380" cy="385" r="6"/><circle cx="410" cy="385" r="6"/><circle cx="440" cy="385" r="6"/><circle cx="470" cy="385" r="6"/><circle cx="500" cy="385" r="6"/><circle cx="530" cy="385" r="6"/><circle cx="560" cy="385" r="6"/><circle cx="590" cy="385" r="6"/><circle cx="620" cy="385" r="6"/>
    <circle cx="290" cy="415" r="6"/><circle cx="320" cy="415" r="6"/><circle cx="350" cy="415" r="6"/><circle cx="380" cy="415" r="6"/><circle cx="410" cy="415" r="6"/><circle cx="440" cy="415" r="6"/><circle cx="470" cy="415" r="6"/><circle cx="500" cy="415" r="6"/><circle cx="530" cy="415" r="6"/><circle cx="560" cy="415" r="6"/><circle cx="590" cy="415" r="6"/><circle cx="620" cy="415" r="6"/>
    <circle cx="290" cy="445" r="6"/><circle cx="320" cy="445" r="6"/><circle cx="350" cy="445" r="6"/><circle cx="380" cy="445" r="6"/><circle cx="410" cy="445" r="6"/><circle cx="440" cy="445" r="6"/><circle cx="470" cy="445" r="6"/><circle cx="500" cy="445" r="6"/><circle cx="530" cy="445" r="6"/><circle cx="560" cy="445" r="6"/><circle cx="590" cy="445" r="6"/><circle cx="620" cy="445" r="6"/>
    <circle cx="290" cy="475" r="6"/><circle cx="320" cy="475" r="6"/><circle cx="350" cy="475" r="6"/><circle cx="380" cy="475" r="6"/><circle cx="410" cy="475" r="6"/><circle cx="440" cy="475" r="6"/><circle cx="470" cy="475" r="6"/><circle cx="500" cy="475" r="6"/><circle cx="530" cy="475" r="6"/><circle cx="560" cy="475" r="6"/><circle cx="590" cy="475" r="6"/><circle cx="620" cy="475" r="6"/>
    <circle cx="290" cy="505" r="6"/><circle cx="320" cy="505" r="6"/><circle cx="350" cy="505" r="6"/><circle cx="380" cy="505" r="6"/><circle cx="410" cy="505" r="6"/><circle cx="440" cy="505" r="6"/><circle cx="470" cy="505" r="6"/><circle cx="500" cy="505" r="6"/><circle cx="530" cy="505" r="6"/><circle cx="560" cy="505" r="6"/><circle cx="590" cy="505" r="6"/><circle cx="620" cy="505" r="6"/>
    <circle cx="290" cy="535" r="6"/><circle cx="320" cy="535" r="6"/><circle cx="350" cy="535" r="6"/><circle cx="380" cy="535" r="6"/><circle cx="410" cy="535" r="6"/><circle cx="440" cy="535" r="6"/><circle cx="470" cy="535" r="6"/><circle cx="500" cy="535" r="6"/><circle cx="530" cy="535" r="6"/><circle cx="560" cy="535" r="6"/><circle cx="590" cy="535" r="6"/><circle cx="620" cy="535" r="6"/>
  </g>

  <circle cx="235" cy="525" r="20" fill="#FFE6B8"/>
  <g fill="url(#bars)">
    <rect x="266" y="458" width="38" height="140" rx="19"/>
    <rect x="318" y="408" width="42" height="230" rx="21"/>
    <rect x="375" y="350" width="46" height="326" rx="23"/>
    <rect x="436" y="392" width="40" height="244" rx="20"/>
    <rect x="490" y="470" width="32" height="132" rx="16"/>
    <rect x="535" y="500" width="26" height="100" rx="13"/>
  </g>

  <path d="M582 486H640V448L726 534L640 620V582H582V486Z" fill="#93E9FF"/>
  <text x="734" y="586" font-family="Arial, Helvetica, sans-serif" font-size="158" font-weight="700" fill="url(#textGrad)">Aa</text>
</svg>
