<svg xmlns="http://www.w3.org/2000/svg" viewBox="0 0 512 512" width="512" height="512">
  <defs>
    <linearGradient id="bg" x1="0" y1="0" x2="1" y2="1">
      <stop offset="0%" stop-color="#0f172a"/>
      <stop offset="100%" stop-color="#1e293b"/>
    </linearGradient>
    <linearGradient id="accent" x1="0" y1="0" x2="1" y2="1">
      <stop offset="0%" stop-color="#22d3ee"/>
      <stop offset="100%" stop-color="#3b82f6"/>
    </linearGradient>
  </defs>

  <rect x="24" y="24" width="464" height="464" rx="112" fill="url(#bg)"/>

  <rect x="98" y="100" width="316" height="312" rx="64" fill="none" stroke="url(#accent)" stroke-width="20" opacity="0.95"/>

  <path d="M150 342V170h42v24c15-16 35-24 59-24 45 0 72 29 72 77v95h-42v-84c0-33-15-49-44-49-18 0-33 6-45 19v114z"
        fill="url(#accent)"/>

  <path d="M356 170c-16 0-28 12-28 28s12 28 28 28 28-12 28-28-12-28-28-28zm-21 84h42v88h-42z"
        fill="#e2e8f0"/>

  <circle cx="372" cy="342" r="40" fill="none" stroke="#e2e8f0" stroke-width="18"/>
</svg>
